<svg xmlns="http://www.w3.org/2000/svg" xmlns:xlink="http://www.w3.org/1999/xlink" viewBox="0 0 233.71 424.1"><defs><style>.cls-1,.cls-5{fill:none;}.cls-2{isolation:isolate;}.cls-3{fill:#fff;}.cls-4{fill:url(#linear-gradient);}.cls-5{stroke:#fff;stroke-miterlimit:10;}.cls-6{fill:#888a8c;}.cls-7{fill:url(#linear-gradient-2);}.cls-8{fill:url(#linear-gradient-3);}.cls-9{fill:url(#linear-gradient-4);}.cls-10{fill:url(#linear-gradient-5);}.cls-11,.cls-13,.cls-15,.cls-20{fill:#4c4e51;}.cls-11,.cls-19,.cls-25{opacity:0.4;}.cls-12{opacity:0.5;}.cls-14{fill:url(#linear-gradient-6);}.cls-15{opacity:0.3;}.cls-16{fill:url(#linear-gradient-7);}.cls-17{fill:url(#linear-gradient-8);}.cls-18{fill:url(#radial-gradient);}.cls-19{mix-blend-mode:multiply;}.cls-20{opacity:0.7;}.cls-21{fill:url(#linear-gradient-9);}.cls-22,.cls-23{fill:#2253dd;}.cls-23{opacity:0.2;}.cls-24{fill:url(#linear-gradient-10);}.cls-26{opacity:0.9;}.cls-27{clip-path:url(#clip-path);}.cls-28{fill:url(#linear-gradient-11);}.cls-29{font-size:18.43px;fill:#5089ef;font-family:PaytoneOne-Regular, Paytone One;letter-spacing:-0.02em;}.cls-30{letter-spacing:0em;}</style><linearGradient id="linear-gradient" x1="116.06" y1="387.15" x2="116.06" y2="42.78" gradientUnits="userSpaceOnUse"><stop offset="0" stop-color="#fff" stop-opacity="0.15"/><stop offset="0.57" stop-color="#fff" stop-opacity="0.7"/><stop offset="1" stop-color="#fff" stop-opacity="0.1"/></linearGradient><linearGradient id="linear-gradient-2" x1="117.39" y1="47.14" x2="117.39" y2="72.16" gradientUnits="userSpaceOnUse"><stop offset="0" stop-color="#aaadb3"/><stop offset="0.45" stop-color="#fff"/><stop offset="1" stop-color="#b7babf"/></linearGradient><linearGradient id="linear-gradient-3" x1="95.86" y1="58.53" x2="138.93" y2="58.53" gradientUnits="userSpaceOnUse"><stop offset="0" stop-color="#9fa6b3"/><stop offset="0.45" stop-color="#fff"/><stop offset="1" stop-color="#9da5b3"/></linearGradient><linearGradient id="linear-gradient-4" x1="126.83" y1="86.99" x2="137.57" y2="86.99" gradientUnits="userSpaceOnUse"><stop offset="0" stop-color="#76797d"/><stop offset="1" stop-color="#fff"/></linearGradient><linearGradient id="linear-gradient-5" x1="99.83" y1="103.64" x2="110.66" y2="103.64" xlink:href="#linear-gradient-2"/><linearGradient id="linear-gradient-6" x1="110.37" y1="66.77" x2="127.61" y2="66.77" gradientUnits="userSpaceOnUse"><stop offset="0" stop-color="#8a8c91"/><stop offset="0" stop-color="#8a8c91"/><stop offset="0.1" stop-color="#b4b5b8"/><stop offset="0.2" stop-color="#d5d5d7"/><stop offset="0.29" stop-color="#ececed"/><stop offset="0.38" stop-color="#fafafa"/><stop offset="0.45" stop-color="#fff"/><stop offset="0.6" stop-color="#fcfcfc"/><stop offset="0.69" stop-color="#f3f4f4"/><stop offset="0.77" stop-color="#e4e5e6"/><stop offset="0.84" stop-color="#cfd0d1"/><stop offset="0.91" stop-color="#b3b5b7"/><stop offset="0.97" stop-color="#929497"/><stop offset="1" stop-color="#818487"/></linearGradient><linearGradient id="linear-gradient-7" x1="113.05" y1="60.17" x2="124.93" y2="60.17" gradientUnits="userSpaceOnUse"><stop offset="0" stop-color="#aaadb3"/><stop offset="0.01" stop-color="#acafb5"/><stop offset="0.15" stop-color="#d0d2d5"/><stop offset="0.29" stop-color="#eaebec"/><stop offset="0.41" stop-color="#fafafa"/><stop offset="0.51" stop-color="#fff"/><stop offset="0.61" stop-color="#f8f8f9"/><stop offset="0.76" stop-color="#e5e6e8"/><stop offset="0.93" stop-color="#c5c8cc"/><stop offset="1" stop-color="#b7babf"/></linearGradient><linearGradient id="linear-gradient-8" x1="96.98" y1="101.25" x2="139.34" y2="101.25" gradientUnits="userSpaceOnUse"><stop offset="0" stop-color="#aaadb3"/><stop offset="0.1" stop-color="#c1c3c7"/><stop offset="0.26" stop-color="#e3e4e6"/><stop offset="0.4" stop-color="#f7f8f8"/><stop offset="0.49" stop-color="#fff"/><stop offset="0.6" stop-color="#fafafa"/><stop offset="0.73" stop-color="#ebeced"/><stop offset="0.88" stop-color="#d2d4d7"/><stop offset="1" stop-color="#b7babf"/></linearGradient><radialGradient id="radial-gradient" cx="113.53" cy="87.66" r="3.35" gradientTransform="translate(-11.6) scale(1.15 1)" xlink:href="#linear-gradient-6"/><linearGradient id="linear-gradient-9" x1="932.44" y1="105.58" x2="932.44" y2="65.37" gradientTransform="matrix(-1.13, 0, 0, -1, 1168.43, 116.53)" gradientUnits="userSpaceOnUse"><stop offset="0" stop-color="#488aff"/><stop offset="1" stop-color="#395bff"/></linearGradient><linearGradient id="linear-gradient-10" x1="110.37" y1="75.81" x2="127.61" y2="75.81" xlink:href="#linear-gradient-2"/><clipPath id="clip-path" transform="translate(1.6)"><rect class="cls-1" x="111.01" y="100.12" width="46.99" height="21.86"/></clipPath><linearGradient id="linear-gradient-11" x1="114.46" y1="387.15" x2="114.46" y2="42.78" gradientUnits="userSpaceOnUse"><stop offset="0.01" stop-color="#fff" stop-opacity="0.7"/><stop offset="1" stop-color="#fff" stop-opacity="0.1"/></linearGradient></defs><g class="cls-2"><g id="Layer_2" data-name="Layer 2"><g id="OBJECTS"><rect class="cls-3" x="12.63" y="154.27" width="210.03" height="259.22" rx="4.95"/><path class="cls-4" d="M222.72,104.49H9.39A8.89,8.89,0,0,0,.5,113.38V414.71a8.89,8.89,0,0,0,8.89,8.89H222.72a8.89,8.89,0,0,0,8.89-8.89V113.38A8.89,8.89,0,0,0,222.72,104.49Zm-61.78,28.44H71.17a7.11,7.11,0,1,1,0-14.22h89.77a7.11,7.11,0,1,1,0,14.22Z" transform="translate(1.6)"/><path class="cls-5" d="M222.72,104.49H9.39A8.89,8.89,0,0,0,.5,113.38V414.71a8.89,8.89,0,0,0,8.89,8.89H222.72a8.89,8.89,0,0,0,8.89-8.89V113.38A8.89,8.89,0,0,0,222.72,104.49Zm-61.78,28.44H71.17a7.11,7.11,0,1,1,0-14.22h89.77a7.11,7.11,0,1,1,0,14.22Z" transform="translate(1.6)"/><path class="cls-3" d="M71.17,133.93h89.77a7.11,7.11,0,0,0,7.12-7.11c0-.17,0-.33,0-.5a7.11,7.11,0,0,1-7.09,6.61H71.17a7.11,7.11,0,0,1-7.09-6.61c0,.17,0,.33,0,.5A7.11,7.11,0,0,0,71.17,133.93Z" transform="translate(1.6)"/><path class="cls-3" d="M222.72,104.49H9.39A8.89,8.89,0,0,0,.5,113.38v1a8.89,8.89,0,0,1,8.89-8.89H222.72a8.89,8.89,0,0,1,8.89,8.89v-1A8.89,8.89,0,0,0,222.72,104.49Z" transform="translate(1.6)"/><path class="cls-6" d="M133.07,70.24H101.71c-5.2,0-9.43-3.67-9.43-8.18V56.91c0-4.51,4.23-8.18,9.43-8.18h31.36c5.2,0,9.44,3.67,9.44,8.18v5.15C142.51,66.57,138.27,70.24,133.07,70.24Zm-31.36-17.1a4.09,4.09,0,0,0-4.35,3.77v5.15a4.09,4.09,0,0,0,4.35,3.77h31.36c2.4,0,4.36-1.69,4.36-3.77V56.91c0-2.08-2-3.77-4.36-3.77Z" transform="translate(1.6)"/><path class="cls-7" d="M133.07,69.28H101.71c-5.2,0-9.43-3.67-9.43-8.19V56c0-4.51,4.23-8.18,9.43-8.18h31.36c5.2,0,9.44,3.67,9.44,8.18v5.14C142.51,65.61,138.27,69.28,133.07,69.28ZM101.71,52.17A4.1,4.1,0,0,0,97.36,56v5.14a4.1,4.1,0,0,0,4.35,3.78h31.36a4.1,4.1,0,0,0,4.36-3.78V56a4.11,4.11,0,0,0-4.36-3.78Z" transform="translate(1.6)"/><path class="cls-8" d="M132.76,65.58H102.91c-4.46,0-7-1.23-7-5v-4c0-2.28,1.41-5,5.87-5h31.42c2.74,0,5.78,1.47,5.78,5v4C138.93,63.54,137.22,65.58,132.76,65.58Zm-31-12.89c-2.4,0-4.35,1.56-4.35,3.47v4.72c0,1.91,2,3.47,4.35,3.47h31.36c2.4,0,4.36-1.56,4.36-3.47V56.16c0-1.91-2-3.47-4.36-3.47Z" transform="translate(1.6)"/><path class="cls-9" d="M126.83,83.64h7.39A3.35,3.35,0,0,1,137.57,87v0a3.35,3.35,0,0,1-3.35,3.35h-7.39a0,0,0,0,1,0,0v-6.7a0,0,0,0,1,0,0Z"/><path class="cls-3" d="M132.9,83.64h-7.67V84h7.67A2.89,2.89,0,0,1,136,86.62V86.3A2.89,2.89,0,0,0,132.9,83.64Z" transform="translate(1.6)"/><path class="cls-10" d="M106.14,110.69c0-4.09,0-11.9,0-12.2l-1.85-4.34-2,2.6a6.39,6.39,0,0,0-1.34,3.86c0,4.06,0,12.53,0,12.53h2.3A2.64,2.64,0,0,0,106.14,110.69Z" transform="translate(1.6)"/><path class="cls-11" d="M102,100.61a6.44,6.44,0,0,1,1.33-3.86L104.68,95l-.38-.87-2,2.6a6.39,6.39,0,0,0-1.34,3.86c0,4.06,0,12.53,0,12.53h1S102,104.67,102,100.61Z" transform="translate(1.6)"/><g class="cls-12"><path class="cls-13" d="M106.13,100.73c0-1.27,0-2.14,0-2.24l-1.85-4.34-2,2.6a6.39,6.39,0,0,0-1.34,3.86v.12Z" transform="translate(1.6)"/></g><rect class="cls-13" x="113.28" y="70.85" width="11.41" height="2.52"/><rect class="cls-14" x="110.37" y="61.79" width="17.24" height="9.97" rx="2.52"/><path class="cls-3" d="M124.32,61.79H110.47a1.6,1.6,0,0,0-1.7,1.47v.35a1.6,1.6,0,0,1,1.7-1.47h13.85A1.59,1.59,0,0,1,126,63.61v-.35A1.59,1.59,0,0,0,124.32,61.79Z" transform="translate(1.6)"/><path class="cls-15" d="M124.32,70.82H110.47a1.6,1.6,0,0,1-1.7-1.47v.94a1.59,1.59,0,0,0,1.7,1.46h13.85A1.59,1.59,0,0,0,126,70.29v-.94A1.59,1.59,0,0,1,124.32,70.82Z" transform="translate(1.6)"/><rect class="cls-16" x="113.05" y="58.54" width="11.88" height="3.24" rx="1.62"/><path class="cls-3" d="M121.84,58.54h-8.9a1.4,1.4,0,0,0-1.49,1.29v.28a1.4,1.4,0,0,1,1.49-1.29h8.9a1.4,1.4,0,0,1,1.49,1.29v-.28A1.4,1.4,0,0,0,121.84,58.54Z" transform="translate(1.6)"/><path class="cls-15" d="M121.84,61.11h-8.9a1.39,1.39,0,0,1-1.48-1.28h0v.67a1.4,1.4,0,0,0,1.49,1.29h8.9a1.4,1.4,0,0,0,1.49-1.29v-.67h0A1.41,1.41,0,0,1,121.84,61.11Z" transform="translate(1.6)"/><path class="cls-17" d="M132.67,94.59,124.59,76h-14.4l-8.07,18.55a13.77,13.77,0,0,0-.74,2.19,2.17,2.17,0,0,0,2.32,2.53h18.55c3.58,0,6.49,2.51,6.5,5.62,0,3.47,0,7.26,0,7.26,0,5.44-5.1,9.86-11.37,9.86-4.85,0-9-2.65-10.62-6.37a3.93,3.93,0,0,0-3.65-2.24H101c.75,7.36,7.95,13.14,16.65,13,9-.13,16.18-6.77,16.18-14.62V101.45A16.19,16.19,0,0,0,132.67,94.59Z" transform="translate(1.6)"/><path class="cls-3" d="M106.77,115.68a3.93,3.93,0,0,0-3.65-2.24h-.38a3.93,3.93,0,0,1,3.65,2.24c1.62,3.72,5.77,6.37,10.62,6.37h.17C112.42,122,108.37,119.34,106.77,115.68Z" transform="translate(1.6)"/><rect class="cls-3" x="105.29" y="99.31" width="18.18"/><ellipse class="cls-18" cx="119.3" cy="87.66" rx="3.87" ry="3.35"/><path class="cls-13" d="M119.84,87.66a2.16,2.16,0,1,1-2.14-1.86A2,2,0,0,1,119.84,87.66Z" transform="translate(1.6)"/><g class="cls-19"><path class="cls-13" d="M124.38,120.28l.06-.06Z" transform="translate(1.6)"/><path class="cls-13" d="M124.62,120.08l.1-.08Z" transform="translate(1.6)"/><path class="cls-13" d="M124.44,120.22l.18-.14Z" transform="translate(1.6)"/><path class="cls-13" d="M124.14,120.47Z" transform="translate(1.6)"/><path class="cls-13" d="M124.72,120l.27-.23Z" transform="translate(1.6)"/><path class="cls-13" d="M124.14,120.47l.19-.15Z" transform="translate(1.6)"/><path class="cls-13" d="M124.33,120.32l0,0Z" transform="translate(1.6)"/><path class="cls-13" d="M125.89,119l0,0Z" transform="translate(1.6)"/><path class="cls-13" d="M126,118.94h0Z" transform="translate(1.6)"/><path class="cls-13" d="M125.93,119l.07,0Z" transform="translate(1.6)"/><path class="cls-20" d="M129.59,104c0-5.65-6.49-6.14-6.49-6.14H107.21c-5.23,0-4.27-2.44-4.27-2.44l7.25-18h-.61l-7.46,17.14a13.77,13.77,0,0,0-.74,2.19,2.17,2.17,0,0,0,2.32,2.53h18.55c3.58,0,6.49,2.51,6.5,5.62,0,3.47,0,7.26,0,7.26a9.12,9.12,0,0,1-3,6.62l.22.12C130.24,115.44,129.59,109.64,129.59,104Z" transform="translate(1.6)"/><path class="cls-13" d="M125.37,119.46l.52-.43Z" transform="translate(1.6)"/><path class="cls-13" d="M125.12,119.66l.25-.2Z" transform="translate(1.6)"/><path class="cls-13" d="M125,119.77l.13-.11Z" transform="translate(1.6)"/></g><path class="cls-21" d="M100.14,0h34.31l0,52.33c0,1.15-1.22,2.09-2.72,2.1l-28.86.07c-1.51,0-2.73-.94-2.73-2.09Z" transform="translate(1.6)"/><path class="cls-22" d="M100.12,52.26l34.31-.09v.68a1.87,1.87,0,0,1-2.06,1.58h-30.2a1.86,1.86,0,0,1-2-1.57Z" transform="translate(1.6)"/><polygon class="cls-22" points="101.72 46.05 136.02 45.96 136.02 47.68 101.72 47.77 101.72 46.05"/><polygon class="cls-23" points="101.72 42.42 136.02 42.33 136.02 43.32 101.72 43.41 101.72 42.42"/><polygon class="cls-23" points="101.72 39.3 136.02 39.21 136.02 40.2 101.72 40.29 101.72 39.3"/><polygon class="cls-23" points="101.72 36.17 136.02 36.08 136.02 37.08 101.72 37.17 101.72 36.17"/><polygon class="cls-23" points="101.72 33.05 136.02 32.96 136.02 33.95 101.72 34.04 101.72 33.05"/><polygon class="cls-23" points="101.72 29.93 136.02 29.84 136.02 30.83 101.72 30.92 101.72 29.93"/><polygon class="cls-23" points="101.72 26.8 136.02 26.71 136.02 27.7 101.72 27.8 101.72 26.8"/><polygon class="cls-23" points="101.72 23.68 136.02 23.59 136.02 24.58 101.72 24.67 101.72 23.68"/><polygon class="cls-23" points="101.72 20.56 136.02 20.47 136.02 21.46 101.72 21.55 101.72 20.56"/><polygon class="cls-23" points="101.72 17.43 136.02 17.34 136.02 18.33 101.72 18.43 101.72 17.43"/><polygon class="cls-23" points="101.72 14.31 136.02 14.22 136.02 15.21 101.72 15.3 101.72 14.31"/><polygon class="cls-23" points="101.72 11.19 136.02 11.1 136.02 12.09 101.72 12.18 101.72 11.19"/><polygon class="cls-23" points="101.72 8.06 136.02 7.97 136.02 8.96 101.72 9.05 101.72 8.06"/><polygon class="cls-23" points="101.72 4.94 136.02 4.85 136.02 5.84 101.72 5.93 101.72 4.94"/><polygon class="cls-23" points="101.72 1.82 136.02 1.73 136.02 2.72 101.72 2.81 101.72 1.82"/><rect class="cls-24" x="110.37" y="73.37" width="17.24" height="4.88" rx="2.44"/><path class="cls-3" d="M124.32,73.37H110.47a1.6,1.6,0,0,0-1.7,1.47v.23a1.6,1.6,0,0,1,1.7-1.47h13.85A1.59,1.59,0,0,1,126,75.07v-.23A1.59,1.59,0,0,0,124.32,73.37Z" transform="translate(1.6)"/><path class="cls-15" d="M124.32,77H110.47a1.6,1.6,0,0,1-1.7-1.47v1.21a1.6,1.6,0,0,0,1.7,1.47h13.85A1.59,1.59,0,0,0,126,76.78V75.57A1.59,1.59,0,0,1,124.32,77Z" transform="translate(1.6)"/><g class="cls-25"><path class="cls-13" d="M103.7,99.31h18.55c3.58,0,6.49,2.51,6.5,5.62,0,2.41,0,5,0,6.32v0s0-3.79,0-7.26c0-3.11-2.92-5.62-6.5-5.62H103.7a2.32,2.32,0,0,1-2.31-1.6v0A2.17,2.17,0,0,0,103.7,99.31Z" transform="translate(1.6)"/><path class="cls-13" d="M117.66,125.49c-8.32.11-15.24-5.16-16.49-12H101c.75,7.36,7.95,13.14,16.65,13,9-.13,16.18-6.77,16.18-14.62v-1C133.84,118.72,126.71,125.36,117.66,125.49Z" transform="translate(1.6)"/></g><g class="cls-26"><g class="cls-27"><path class="cls-28" d="M221.13,104.49H7.79a8.89,8.89,0,0,0-8.89,8.89V414.71a8.89,8.89,0,0,0,8.89,8.89H221.13a8.89,8.89,0,0,0,8.89-8.89V113.38A8.89,8.89,0,0,0,221.13,104.49Zm-61.78,28.44H69.57a7.11,7.11,0,1,1,0-14.22h89.78a7.11,7.11,0,1,1,0,14.22Z" transform="translate(1.6)"/><path class="cls-5" d="M221.13,104.49H7.79a8.89,8.89,0,0,0-8.89,8.89V414.71a8.89,8.89,0,0,0,8.89,8.89H221.13a8.89,8.89,0,0,0,8.89-8.89V113.38A8.89,8.89,0,0,0,221.13,104.49Zm-61.78,28.44H69.57a7.11,7.11,0,1,1,0-14.22h89.78a7.11,7.11,0,1,1,0,14.22Z" transform="translate(1.6)"/><path class="cls-3" d="M69.57,133.93h89.78a7.11,7.11,0,0,0,7.11-7.11c0-.17,0-.33,0-.5a7.11,7.11,0,0,1-7.09,6.61H69.57a7.1,7.1,0,0,1-7.08-6.61,4.19,4.19,0,0,0,0,.5A7.11,7.11,0,0,0,69.57,133.93Z" transform="translate(1.6)"/><path class="cls-3" d="M221.13,104.49H7.79a8.89,8.89,0,0,0-8.89,8.89v1a8.89,8.89,0,0,1,8.89-8.89H221.13a8.89,8.89,0,0,1,8.89,8.89v-1A8.89,8.89,0,0,0,221.13,104.49Z" transform="translate(1.6)"/></g></g><text class="cls-29" transform="translate(84.5 178.21)">T<tspan class="cls-30" x="9.94" y="0">OPGO</tspan></text></g></g></g></svg>