<svg xmlns="http://www.w3.org/2000/svg" xmlns:xlink="http://www.w3.org/1999/xlink" viewBox="0 0 171.44 90.11"><defs><style>.cls-1{isolation:isolate;}.cls-2{fill:#09add3;mix-blend-mode:multiply;opacity:0.15;}.cls-3{fill:url(#linear-gradient);}.cls-4{fill:#fefefe;}.cls-5{fill:#fff;}</style><linearGradient id="linear-gradient" x1="145.37" y1="70.79" x2="72.2" y2="-2.37" gradientTransform="translate(-6.88 21.29) rotate(-1.35)" gradientUnits="userSpaceOnUse"><stop offset="0" stop-color="#fefefe"/><stop offset="0.54" stop-color="#ecfefe"/><stop offset="1" stop-color="#dafeff"/></linearGradient></defs><g class="cls-1"><g id="Layer_2" data-name="Layer 2"><g id="BACKGROUND_1" data-name="BACKGROUND 1"><path class="cls-2" d="M171.43,52.51a23.48,23.48,0,0,0-24-22.93h0a20.3,20.3,0,0,0-19-11.95c-.58,0-1.14.05-1.71.11a20.3,20.3,0,0,0-37.83-2.33A21.42,21.42,0,0,0,55.39,26a21.51,21.51,0,0,0-2.91-.13,21.8,21.8,0,0,0-4.15,43.08,20.3,20.3,0,0,0,32.61,12,26.58,26.58,0,0,0,39,1.37,19.54,19.54,0,0,0,30.36-5.81A23.49,23.49,0,0,0,171.43,52.51Z"/><path class="cls-3" d="M167.91,50.42a23.5,23.5,0,0,0-24-22.93h0a20.29,20.29,0,0,0-19-12c-.57,0-1.14.05-1.7.11a20.3,20.3,0,0,0-37.83-2.33A21.42,21.42,0,0,0,51.87,23.88a21.8,21.8,0,0,0-7.06,43,20.29,20.29,0,0,0,32.6,11.94,26.58,26.58,0,0,0,39,1.37,19.52,19.52,0,0,0,30.36-5.81A23.49,23.49,0,0,0,167.91,50.42Z"/><path class="cls-4" d="M28.81,47.77A21.8,21.8,0,0,1,50.08,25.46a21.51,21.51,0,0,1,2.91.13A21.42,21.42,0,0,1,86.46,15a20.31,20.31,0,0,1,34.83-3.59,20.29,20.29,0,0,0-35.95,1.88A21.42,21.42,0,0,0,51.87,23.88a21.79,21.79,0,0,0-20.08,34.4A21.77,21.77,0,0,1,28.81,47.77Z"/><path class="cls-4" d="M48.39,75a20,20,0,0,1-2.45-6.42l-.77-.2A20.28,20.28,0,0,0,48.39,75Z"/><polygon class="cls-5" points="8.6 45.78 9.39 53.58 17.19 54.37 9.39 55.17 8.6 62.97 7.8 55.17 0 54.37 7.8 53.58 8.6 45.78"/><polygon class="cls-5" points="144.65 0 145 3.28 148.28 3.61 145 3.95 144.67 7.24 144.33 3.95 141.04 3.63 144.33 3.28 144.65 0"/></g></g></g></svg>