<svg width="254" height="30" viewBox="0 0 254 30" fill="none" xmlns="http://www.w3.org/2000/svg">
<g clip-path="url(#clip0_29_175)">
<mask id="mask0_29_175" style="mask-type:luminance" maskUnits="userSpaceOnUse" x="0" y="0" width="255" height="30">
<path d="M254.211 0H0V30H254.211V0Z" fill="white"/>
</mask>
<g mask="url(#mask0_29_175)">
<path d="M245.558 27.2577C245.505 27.3824 245.443 27.5162 245.371 27.6585C245.3 27.8187 245.256 27.9167 245.238 27.9525H242.887C242.994 27.721 243.11 27.4625 243.234 27.1776C243.359 26.9106 243.51 26.5811 243.688 26.1893C243.795 25.9578 243.893 25.7439 243.982 25.5482C244.071 25.3522 244.169 25.1295 244.276 24.8804C244.401 24.6489 244.543 24.3549 244.704 23.9988L245.932 21.3274L240.296 8.55824H242.753L247.028 18.6827H247.081L251.195 8.55824H253.653L246.6 24.827C246.529 24.9872 246.413 25.2366 246.253 25.5749C246.111 25.9311 245.968 26.2694 245.826 26.5899C245.701 26.9285 245.612 27.1509 245.558 27.2577Z" fill="#202124"/>
<path d="M231.66 10.6152V8.55826H234.065V4.71149H236.335V8.55826H239.675V10.6152H236.335V18.0416C236.335 18.8074 236.487 19.3773 236.789 19.7513C237.11 20.1075 237.582 20.2856 238.205 20.2856C238.49 20.2856 238.757 20.2499 239.007 20.1787C239.256 20.0896 239.497 19.9739 239.728 19.8314V22.0487C239.443 22.1555 239.149 22.2357 238.846 22.2891C238.544 22.3603 238.214 22.3959 237.858 22.3959C236.718 22.3959 235.801 22.0576 235.107 21.3808C234.412 20.6863 234.065 19.7602 234.065 18.6026V10.6152H231.66Z" fill="#202124"/>
<path d="M227.6 22.1822V8.55826H229.871V22.1822H227.6ZM228.722 6.04718C228.277 6.04718 227.894 5.88691 227.574 5.56634C227.253 5.24578 227.093 4.86286 227.093 4.41765C227.093 3.9546 227.253 3.57172 227.574 3.26896C227.894 2.9484 228.277 2.7881 228.722 2.7881C229.185 2.7881 229.568 2.9484 229.871 3.26896C230.192 3.57172 230.352 3.9546 230.352 4.41765C230.352 4.86286 230.192 5.24578 229.871 5.56634C229.568 5.88691 229.185 6.04718 228.722 6.04718Z" fill="#202124"/>
<path d="M218.523 22.1822L213.02 8.55824H215.451L219.671 19.5109H219.725L223.999 8.55824H226.376L220.82 22.1822H218.523Z" fill="#202124"/>
<path d="M205.711 22.6096C204.696 22.6096 203.805 22.4137 203.039 22.022C202.274 21.6301 201.668 21.0959 201.223 20.4191C200.796 19.7246 200.582 18.941 200.582 18.0683C200.582 17.071 200.84 16.234 201.357 15.5572C201.873 14.8627 202.568 14.3462 203.44 14.0078C204.313 13.6517 205.274 13.4736 206.325 13.4736C206.931 13.4736 207.492 13.527 208.008 13.6339C208.525 13.7229 208.97 13.8387 209.344 13.9811C209.736 14.1058 210.03 14.2304 210.225 14.3551V13.527C210.225 12.4941 209.86 11.6748 209.13 11.0693C208.4 10.4638 207.51 10.1611 206.459 10.1611C205.711 10.1611 205.007 10.3303 204.348 10.6686C203.707 10.9892 203.2 11.4433 202.826 12.031L201.116 10.7488C201.472 10.2145 201.918 9.75146 202.452 9.35965C202.986 8.96785 203.592 8.66509 204.268 8.45139C204.963 8.23769 205.693 8.13083 206.459 8.13083C208.311 8.13083 209.762 8.62058 210.813 9.60008C211.864 10.5796 212.389 11.8975 212.389 13.5537V22.1822H210.225V20.2321H210.118C209.887 20.6239 209.557 21.0068 209.13 21.3808C208.703 21.737 208.195 22.0308 207.607 22.2624C207.038 22.4939 206.405 22.6096 205.711 22.6096ZM205.925 20.6061C206.708 20.6061 207.42 20.4102 208.062 20.0184C208.721 19.6266 209.246 19.1013 209.638 18.4423C210.03 17.7834 210.225 17.0621 210.225 16.2785C209.816 15.9936 209.299 15.762 208.676 15.5839C208.07 15.4059 207.403 15.3168 206.672 15.3168C205.372 15.3168 204.42 15.5839 203.814 16.1182C203.209 16.6525 202.906 17.3114 202.906 18.095C202.906 18.843 203.191 19.4485 203.761 19.9116C204.331 20.3746 205.052 20.6061 205.925 20.6061Z" fill="#202124"/>
<path d="M192.341 22.1822V8.55823H194.505V10.7487H194.612C194.79 10.2323 195.084 9.78705 195.494 9.41306C195.921 9.02125 196.402 8.7185 196.936 8.5048C197.488 8.27329 198.031 8.15753 198.566 8.15753C198.975 8.15753 199.296 8.18423 199.527 8.23767C199.759 8.27329 199.973 8.33561 200.168 8.42466V10.8823C199.884 10.7399 199.572 10.633 199.234 10.5617C198.913 10.4905 198.583 10.4549 198.245 10.4549C197.586 10.4549 196.981 10.6419 196.428 11.0159C195.877 11.3899 195.431 11.8885 195.093 12.5119C194.772 13.1352 194.612 13.8208 194.612 14.5688V22.1822H192.341Z" fill="#202124"/>
<path d="M182.972 28.3797C181.815 28.3797 180.817 28.184 179.98 27.792C179.161 27.4182 178.493 26.9373 177.977 26.3495C177.478 25.7618 177.122 25.1653 176.908 24.5597L178.992 23.6782C179.277 24.4262 179.758 25.0494 180.434 25.5482C181.129 26.0646 181.975 26.3228 182.972 26.3228C184.397 26.3228 185.492 25.9044 186.258 25.0673C187.024 24.2481 187.407 23.0994 187.407 21.6212V20.0986H187.3C186.872 20.7575 186.258 21.3185 185.457 21.7815C184.655 22.2268 183.72 22.4494 182.652 22.4494C181.476 22.4494 180.399 22.1466 179.419 21.5411C178.458 20.9356 177.692 20.0986 177.122 19.03C176.552 17.9436 176.267 16.697 176.267 15.2901C176.267 13.8832 176.552 12.6454 177.122 11.5769C177.692 10.4905 178.458 9.6446 179.419 9.03909C180.399 8.43358 181.476 8.13083 182.652 8.13083C183.72 8.13083 184.655 8.36234 185.457 8.82539C186.258 9.2706 186.872 9.83159 187.3 10.5083H187.407V8.55826H189.571V21.648C189.571 23.1617 189.277 24.4173 188.689 25.4147C188.119 26.412 187.335 27.1509 186.338 27.6318C185.359 28.1306 184.237 28.3797 182.972 28.3797ZM182.972 20.3924C183.773 20.3924 184.513 20.1965 185.19 19.8047C185.866 19.3951 186.4 18.8074 186.792 18.0416C187.202 17.2758 187.407 16.3586 187.407 15.2901C187.407 14.1859 187.202 13.2599 186.792 12.5119C186.4 11.7461 185.866 11.1673 185.19 10.7755C184.513 10.3837 183.773 10.1878 182.972 10.1878C182.171 10.1878 181.432 10.3926 180.755 10.8022C180.078 11.194 179.535 11.7728 179.125 12.5386C178.716 13.2866 178.511 14.2037 178.511 15.2901C178.511 16.3764 178.716 17.3025 179.125 18.0683C179.535 18.8163 180.078 19.3951 180.755 19.8047C181.432 20.1965 182.171 20.3924 182.972 20.3924Z" fill="#202124"/>
<path d="M171.94 22.1822V8.55826H174.211V22.1822H171.94ZM173.062 6.04718C172.617 6.04718 172.234 5.88691 171.913 5.56634C171.593 5.24578 171.432 4.86286 171.432 4.41765C171.432 3.9546 171.593 3.57172 171.913 3.26896C172.234 2.9484 172.617 2.7881 173.062 2.7881C173.525 2.7881 173.908 2.9484 174.211 3.26896C174.531 3.57172 174.691 3.9546 174.691 4.41765C174.691 4.86286 174.531 5.24578 174.211 5.56634C173.908 5.88691 173.525 6.04718 173.062 6.04718Z" fill="#202124"/>
<path d="M161.755 10.6152V8.55826H164.159V4.71149H166.43V8.55826H169.769V10.6152H166.43V18.0416C166.43 18.8074 166.581 19.3773 166.884 19.7513C167.205 20.1075 167.677 20.2856 168.3 20.2856C168.585 20.2856 168.852 20.2499 169.101 20.1787C169.351 20.0896 169.591 19.9739 169.823 19.8314V22.0487C169.538 22.1555 169.244 22.2357 168.941 22.2891C168.638 22.3603 168.309 22.3959 167.953 22.3959C166.813 22.3959 165.896 22.0576 165.201 21.3808C164.507 20.6863 164.159 19.7602 164.159 18.6026V10.6152H161.755Z" fill="#202124"/>
<path d="M148.747 22.1822V8.55826H150.911V10.5618H151.018C151.374 9.90284 151.953 9.33295 152.754 8.85209C153.573 8.37126 154.464 8.13083 155.425 8.13083C157.1 8.13083 158.355 8.62058 159.192 9.60008C160.047 10.5618 160.474 11.844 160.474 13.4469V22.1822H158.204V13.7941C158.204 12.4762 157.883 11.5502 157.242 11.0159C156.619 10.4638 155.808 10.1878 154.811 10.1878C154.063 10.1878 153.404 10.4015 152.834 10.8289C152.264 11.2385 151.819 11.7728 151.498 12.4317C151.178 13.0907 151.018 13.7852 151.018 14.5154V22.1822H148.747Z" fill="#202124"/>
<path d="M130.13 22.1822L137.396 3.05524H139.96L147.227 22.1822H144.742L142.792 16.9196H134.564L132.614 22.1822H130.13ZM142.017 14.7825L139.48 7.8904L138.731 5.83345H138.625L137.877 7.8904L135.339 14.7825H142.017Z" fill="#202124"/>
<path d="M48.9376 22.612C42.9791 22.612 37.9733 17.757 37.9733 11.7987C37.9733 5.84039 42.9791 0.985474 48.9376 0.985474C52.2331 0.985474 54.5763 2.27759 56.3418 3.96462L54.26 6.04654C52.9939 4.85895 51.2809 3.9356 48.9376 3.9356C44.5909 3.9356 41.1907 7.44321 41.1907 11.7958C41.1907 16.1484 44.5909 19.6531 48.9376 19.6531C51.7571 19.6531 53.3657 18.5207 54.3935 17.4899C55.2356 16.6449 55.7902 15.4341 56.0021 13.7703H48.8619V10.8173H58.8738C58.9783 11.3457 59.0308 11.9787 59.0308 12.664C59.0308 14.8795 58.4237 17.6234 56.4754 19.5747C54.5793 21.5521 52.1547 22.6061 48.9376 22.6061V22.612Z" fill="#202124"/>
<path d="M74.0253 15.649C74.0253 19.6589 70.8921 22.612 67.0506 22.612C63.2091 22.612 60.0759 19.6589 60.0759 15.649C60.0759 11.639 63.2091 8.68602 67.0506 8.68602C70.8921 8.68602 74.0253 11.6129 74.0253 15.649ZM70.9704 15.649C70.9704 13.1431 69.153 11.43 67.0477 11.43C64.9427 11.43 63.1249 13.1431 63.1249 15.649C63.1249 18.1549 64.9427 19.868 67.0477 19.868C69.153 19.868 70.9704 18.1287 70.9704 15.649Z" fill="#202124"/>
<path d="M89.2084 15.649C89.2084 19.6589 86.0752 22.612 82.2337 22.612C78.3923 22.612 75.2591 19.6589 75.2591 15.649C75.2591 11.639 78.3923 8.68602 82.2337 8.68602C86.0752 8.68602 89.2084 11.6129 89.2084 15.649ZM86.1536 15.649C86.1536 13.1431 84.3361 11.43 82.2308 11.43C80.1258 11.43 78.308 13.1431 78.308 15.649C78.308 18.1549 80.1258 19.868 82.2308 19.868C84.3361 19.868 86.1536 18.1287 86.1536 15.649Z" fill="#202124"/>
<path d="M103.733 9.10705V21.6073C103.733 26.7498 100.701 28.8606 97.1179 28.8606C93.7438 28.8606 91.7142 26.5928 90.9505 24.7463L93.6133 23.6399C94.0866 24.7753 95.2479 26.1195 97.1179 26.1195C99.4119 26.1195 100.835 24.6967 100.835 22.0312V21.0295H100.73C100.045 21.8744 98.7265 22.612 97.0657 22.612C93.5872 22.612 90.3988 19.5805 90.3988 15.6751C90.3988 11.7697 93.5872 8.68602 97.0657 8.68602C98.7265 8.68602 100.045 9.42354 100.73 10.2424H100.835V9.10705H103.733ZM101.044 15.6751C101.044 13.2215 99.409 11.43 97.3271 11.43C95.245 11.43 93.4536 13.2244 93.4536 15.6751C93.4536 18.1258 95.2189 19.868 97.3271 19.868C99.4351 19.868 101.044 18.0997 101.044 15.6751Z" fill="#202124"/>
<path d="M108.988 1.72301V22.188H105.931V1.72301H108.988Z" fill="#202124"/>
<path d="M120.838 17.9429L123.21 19.5254C122.447 20.6607 120.6 22.612 117.412 22.612C113.46 22.612 110.507 19.5515 110.507 15.649C110.507 11.5084 113.486 8.68602 117.069 8.68602C120.652 8.68602 122.444 11.5606 123.024 13.117L123.341 13.9068L114.037 17.757C114.749 19.1537 115.855 19.868 117.412 19.868C118.968 19.868 120.048 19.1043 120.838 17.9429ZM113.538 15.437L119.758 12.8528C119.415 11.9817 118.387 11.3748 117.177 11.3748C115.623 11.3748 113.46 12.7453 113.541 15.437H113.538Z" fill="#202124"/>
<path d="M25.4513 22.756C26.8206 23.783 28.8746 23.0983 26.9917 21.2155C21.3433 15.7383 22.5415 0.675949 15.5238 0.675949C8.50611 0.675949 9.70424 15.7383 4.05586 21.2155C2.00191 23.2695 4.22701 23.783 5.59633 22.756C10.9024 19.1616 10.5601 12.8285 15.5238 12.8285C20.4875 12.8285 20.1452 19.1616 25.4513 22.756Z" fill="#3186FF"/>
<mask id="mask1_29_175" style="mask-type:alpha" maskUnits="userSpaceOnUse" x="3" y="0" width="25" height="24">
<path d="M25.4513 22.756C26.8206 23.783 28.8746 23.0983 26.9917 21.2155C21.3433 15.7383 22.5415 0.675949 15.5238 0.675949C8.50611 0.675949 9.70424 15.7383 4.05586 21.2155C2.00191 23.2695 4.22701 23.783 5.59633 22.756C10.9024 19.1616 10.5601 12.8285 15.5238 12.8285C20.4875 12.8285 20.1452 19.1616 25.4513 22.756Z" fill="black"/>
</mask>
<g mask="url(#mask1_29_175)">
<g filter="url(#filter0_f_29_175)">
<path d="M2.18299 -4.42516C1.7665 -0.755975 4.9284 2.6157 9.24529 3.10569C13.5622 3.59568 17.3993 1.01843 17.8158 -2.65075C18.2323 -6.31994 15.0704 -9.69162 10.7535 -10.1816C6.43662 -10.6716 2.59947 -8.09435 2.18299 -4.42516Z" fill="#FFE432"/>
</g>
<g filter="url(#filter1_f_29_175)">
<path d="M18.827 7.57105C19.9086 12.2278 24.6434 15.1067 29.4025 14.0014C34.1616 12.896 37.1428 8.22495 36.0612 3.56824C34.9796 -1.08848 30.2449 -3.96743 25.4858 -2.86209C20.7267 -1.75674 17.7455 2.91433 18.827 7.57105Z" fill="#FC413D"/>
</g>
<g filter="url(#filter2_f_29_175)">
<path d="M-9.49181 10.6948C-8.12515 15.5007 -1.97023 17.9614 4.25559 16.1909C10.4814 14.4205 14.4205 9.08933 13.0539 4.28346C11.6872 -0.522408 5.53231 -2.9831 -0.693513 -1.21264C-6.91934 0.557809 -10.8585 5.88897 -9.49181 10.6948Z" fill="#00B95C"/>
</g>
<g filter="url(#filter3_f_29_175)">
<path d="M-9.49181 10.6948C-8.12515 15.5007 -1.97023 17.9614 4.25559 16.1909C10.4814 14.4205 14.4205 9.08933 13.0539 4.28346C11.6872 -0.522408 5.53231 -2.9831 -0.693513 -1.21264C-6.91934 0.557809 -10.8585 5.88897 -9.49181 10.6948Z" fill="#00B95C"/>
</g>
<g filter="url(#filter4_f_29_175)">
<path d="M-4.55144 14.6785C-1.12542 18.1778 4.77495 17.957 8.62739 14.1852C12.4798 10.4135 12.8255 4.51913 9.39951 1.0198C5.97349 -2.47953 0.073126 -2.2587 -3.77932 1.51304C-7.63177 5.28478 -7.97746 11.1791 -4.55144 14.6785Z" fill="#00B95C"/>
</g>
<g filter="url(#filter5_f_29_175)">
<path d="M13.373 27.8758C14.4369 32.4563 18.875 35.339 23.2859 34.3146C27.6967 33.2901 30.4099 28.7464 29.3461 24.1659C28.2822 19.5855 23.8441 16.7027 19.4333 17.7272C15.0224 18.7517 12.3092 23.2954 13.373 27.8758Z" fill="#3186FF"/>
</g>
<g filter="url(#filter6_f_29_175)">
<path d="M5.85234 -8.71034C3.62466 -3.74794 6.0619 2.17966 11.2961 4.52933C16.5302 6.87899 22.5792 4.76095 24.8069 -0.201454C27.0346 -5.16386 24.5974 -11.0915 19.3632 -13.4411C14.129 -15.7908 8.08002 -13.6727 5.85234 -8.71034Z" fill="#FBBC04"/>
</g>
<g filter="url(#filter7_f_29_175)">
<path d="M-0.115015 39.1876C-5.50801 37.0706 3.70848 19.6519 6.00029 13.814C8.29212 7.97606 14.5219 4.95977 19.9149 7.0769C25.3079 9.19403 31.7002 20.8549 29.4083 26.6928C27.1164 32.5307 5.278 41.3046 -0.115015 39.1876Z" fill="#3186FF"/>
</g>
<g filter="url(#filter8_f_29_175)">
<path d="M32.5623 17.5075C31.1184 19.1926 27.3506 18.3334 24.1466 15.5882C20.9426 12.843 19.5157 9.25155 20.9595 7.56639C22.4033 5.88127 26.1711 6.74059 29.3751 9.48573C32.579 12.2309 34.0062 15.8224 32.5623 17.5075Z" fill="#749BFF"/>
</g>
<g filter="url(#filter9_f_29_175)">
<path d="M21.7843 8.92999C27.7226 12.947 34.5609 13.2109 37.058 9.51941C39.5551 5.82795 36.7654 -0.420983 30.827 -4.43797C24.8887 -8.45495 18.0504 -8.71885 15.5533 -5.02739C13.0562 -1.33593 15.8459 4.913 21.7843 8.92999Z" fill="#FC413D"/>
</g>
<g filter="url(#filter10_f_29_175)">
<path d="M2.2884 2.39658C0.817217 5.94553 1.29771 9.5161 3.3616 10.3717C5.4255 11.2272 8.29125 9.04382 9.76244 5.49487C11.2336 1.94592 10.7531 -1.62465 8.68924 -2.48022C6.62534 -3.33579 3.75959 -1.15238 2.2884 2.39658Z" fill="#FFEE48"/>
</g>
</g>
</g>
</g>
<defs>
<filter id="filter0_f_29_175" x="-0.136886" y="-12.5244" width="20.2726" height="17.9729" filterUnits="userSpaceOnUse" color-interpolation-filters="sRGB">
<feFlood flood-opacity="0" result="BackgroundImageFix"/>
<feBlend mode="normal" in="SourceGraphic" in2="BackgroundImageFix" result="shape"/>
<feGaussianBlur stdDeviation="1.14151" result="effect1_foregroundBlur_29_175"/>
</filter>
<filter id="filter1_f_29_175" x="7.56811" y="-14.1356" width="39.752" height="39.4105" filterUnits="userSpaceOnUse" color-interpolation-filters="sRGB">
<feFlood flood-opacity="0" result="BackgroundImageFix"/>
<feBlend mode="normal" in="SourceGraphic" in2="BackgroundImageFix" result="shape"/>
<feGaussianBlur stdDeviation="5.51863" result="effect1_foregroundBlur_29_175"/>
</filter>
<filter id="filter2_f_29_175" x="-19.1454" y="-11.1696" width="41.8528" height="37.3175" filterUnits="userSpaceOnUse" color-interpolation-filters="sRGB">
<feFlood flood-opacity="0" result="BackgroundImageFix"/>
<feBlend mode="normal" in="SourceGraphic" in2="BackgroundImageFix" result="shape"/>
<feGaussianBlur stdDeviation="4.69136" result="effect1_foregroundBlur_29_175"/>
</filter>
<filter id="filter3_f_29_175" x="-19.1454" y="-11.1696" width="41.8528" height="37.3175" filterUnits="userSpaceOnUse" color-interpolation-filters="sRGB">
<feFlood flood-opacity="0" result="BackgroundImageFix"/>
<feBlend mode="normal" in="SourceGraphic" in2="BackgroundImageFix" result="shape"/>
<feGaussianBlur stdDeviation="4.69136" result="effect1_foregroundBlur_29_175"/>
</filter>
<filter id="filter4_f_29_175" x="-16.2936" y="-10.8495" width="37.4353" height="37.3973" filterUnits="userSpaceOnUse" color-interpolation-filters="sRGB">
<feFlood flood-opacity="0" result="BackgroundImageFix"/>
<feBlend mode="normal" in="SourceGraphic" in2="BackgroundImageFix" result="shape"/>
<feGaussianBlur stdDeviation="4.69136" result="effect1_foregroundBlur_29_175"/>
</filter>
<filter id="filter5_f_29_175" x="4.22578" y="8.6041" width="34.2676" height="34.8336" filterUnits="userSpaceOnUse" color-interpolation-filters="sRGB">
<feFlood flood-opacity="0" result="BackgroundImageFix"/>
<feBlend mode="normal" in="SourceGraphic" in2="BackgroundImageFix" result="shape"/>
<feGaussianBlur stdDeviation="4.45817" result="effect1_foregroundBlur_29_175"/>
</filter>
<filter id="filter6_f_29_175" x="-3.0537" y="-22.4806" width="36.7667" height="36.0493" filterUnits="userSpaceOnUse" color-interpolation-filters="sRGB">
<feFlood flood-opacity="0" result="BackgroundImageFix"/>
<feBlend mode="normal" in="SourceGraphic" in2="BackgroundImageFix" result="shape"/>
<feGaussianBlur stdDeviation="4.04037" result="effect1_foregroundBlur_29_175"/>
</filter>
<filter id="filter7_f_29_175" x="-8.99883" y="-0.816227" width="46.1023" height="47.5429" filterUnits="userSpaceOnUse" color-interpolation-filters="sRGB">
<feFlood flood-opacity="0" result="BackgroundImageFix"/>
<feBlend mode="normal" in="SourceGraphic" in2="BackgroundImageFix" result="shape"/>
<feGaussianBlur stdDeviation="3.60822" result="effect1_foregroundBlur_29_175"/>
</filter>
<filter id="filter8_f_29_175" x="13.9387" y="0.246372" width="25.6444" height="24.5812" filterUnits="userSpaceOnUse" color-interpolation-filters="sRGB">
<feFlood flood-opacity="0" result="BackgroundImageFix"/>
<feBlend mode="normal" in="SourceGraphic" in2="BackgroundImageFix" result="shape"/>
<feGaussianBlur stdDeviation="3.2287" result="effect1_foregroundBlur_29_175"/>
</filter>
<filter id="filter9_f_29_175" x="9.18429" y="-13.0863" width="34.2427" height="30.6645" filterUnits="userSpaceOnUse" color-interpolation-filters="sRGB">
<feFlood flood-opacity="0" result="BackgroundImageFix"/>
<feBlend mode="normal" in="SourceGraphic" in2="BackgroundImageFix" result="shape"/>
<feGaussianBlur stdDeviation="2.72703" result="effect1_foregroundBlur_29_175"/>
</filter>
<filter id="filter10_f_29_175" x="-5.3145" y="-9.41612" width="22.6798" height="26.7237" filterUnits="userSpaceOnUse" color-interpolation-filters="sRGB">
<feFlood flood-opacity="0" result="BackgroundImageFix"/>
<feBlend mode="normal" in="SourceGraphic" in2="BackgroundImageFix" result="shape"/>
<feGaussianBlur stdDeviation="3.37515" result="effect1_foregroundBlur_29_175"/>
</filter>
<clipPath id="clip0_29_175">
<rect width="254" height="30" fill="white"/>
</clipPath>
</defs>
</svg>
