<svg xmlns="http://www.w3.org/2000/svg" xmlns:xlink="http://www.w3.org/1999/xlink" viewBox="0 0 841.89 487.62"><defs><style>.cls-1,.cls-9{mask:url(#mask);}.cls-1{filter:url(#luminosity-noclip-9);}.cls-10,.cls-12,.cls-14,.cls-16,.cls-2,.cls-4,.cls-6,.cls-8{mix-blend-mode:multiply;}.cls-2{fill:url(#_Ì_Ý_èƒOƒ_ƒf_ƒVƒ_ƒ_277);}.cls-15,.cls-3{mask:url(#mask-2);}.cls-4{fill:url(#_Ì_Ý_èƒOƒ_ƒf_ƒVƒ_ƒ_6);}.cls-5,.cls-7{mask:url(#mask-3);}.cls-5{filter:url(#luminosity-noclip-15);}.cls-6{fill:url(#_Ì_Ý_èƒOƒ_ƒf_ƒVƒ_ƒ_277-2);}.cls-8{fill:url(#_Ì_Ý_èƒOƒ_ƒf_ƒVƒ_ƒ_6-2);}.cls-10{fill:url(#_Ì_Ý_èƒOƒ_ƒf_ƒVƒ_ƒ_6-3);}.cls-11,.cls-13{mask:url(#mask-6);}.cls-11{filter:url(#luminosity-noclip-11);}.cls-12{fill:url(#_Ì_Ý_èƒOƒ_ƒf_ƒVƒ_ƒ_277-3);}.cls-14{fill:url(#_Ì_Ý_èƒOƒ_ƒf_ƒVƒ_ƒ_6-4);}.cls-15{filter:url(#luminosity-noclip-13);}.cls-16{fill:url(#_Ì_Ý_èƒOƒ_ƒf_ƒVƒ_ƒ_277-4);}.cls-17{isolation:isolate;}.cls-18{fill:url(#V_KƒOƒ_ƒf_ƒVƒ_ƒ_ƒXƒEƒHƒbƒ_10);}.cls-19{fill:url(#V_KƒOƒ_ƒf_ƒVƒ_ƒ_ƒXƒEƒHƒbƒ_9);}.cls-20{fill:url(#V_KƒOƒ_ƒf_ƒVƒ_ƒ_ƒXƒEƒHƒbƒ_7);}.cls-21{fill:url(#V_KƒOƒ_ƒf_ƒVƒ_ƒ_ƒXƒEƒHƒbƒ_7-2);}.cls-22{fill:url(#V_KƒOƒ_ƒf_ƒVƒ_ƒ_ƒXƒEƒHƒbƒ_7-3);}.cls-23{fill:url(#V_KƒOƒ_ƒf_ƒVƒ_ƒ_ƒXƒEƒHƒbƒ_8);}.cls-24{fill:url(#V_KƒOƒ_ƒf_ƒVƒ_ƒ_ƒXƒEƒHƒbƒ_8-2);}.cls-25{fill:#fff;}.cls-26{fill:#2ca6e0;}.cls-26,.cls-27,.cls-28{mix-blend-mode:screen;}.cls-27{fill:#77c8e8;}.cls-28{fill:#4cc0ed;}.cls-29{mask:url(#mask-9);}.cls-30,.cls-32,.cls-36{opacity:0.6;}.cls-30{fill:url(#_Ì_Ý_èƒOƒ_ƒf_ƒVƒ_ƒ_5);}.cls-31{mask:url(#mask-11);}.cls-32{fill:url(#_Ì_Ý_èƒOƒ_ƒf_ƒVƒ_ƒ_5-2);}.cls-33{mask:url(#mask-13);}.cls-34{opacity:0.8;fill:url(#_Ì_Ý_èƒOƒ_ƒf_ƒVƒ_ƒ_5-3);}.cls-35{mask:url(#mask-15);}.cls-36{fill:url(#_Ì_Ý_èƒOƒ_ƒf_ƒVƒ_ƒ_5-4);}.cls-37{filter:url(#luminosity-noclip-6);}.cls-38{filter:url(#luminosity-noclip-3);}.cls-39{filter:url(#luminosity-noclip-2);}.cls-40{filter:url(#luminosity-noclip);}</style><filter id="luminosity-noclip" x="580.84" y="-8423.03" width="261.05" height="32766" filterUnits="userSpaceOnUse" color-interpolation-filters="sRGB"><feFlood flood-color="#fff" result="bg"/><feBlend in="SourceGraphic" in2="bg"/></filter><mask id="mask" x="580.84" y="-8423.03" width="261.05" height="32766" maskUnits="userSpaceOnUse"><g class="cls-40"/></mask><linearGradient id="_Ì_Ý_èƒOƒ_ƒf_ƒVƒ_ƒ_277" x1="711.37" y1="294.95" x2="711.37" y2="11.44" gradientUnits="userSpaceOnUse"><stop offset="0.49"/><stop offset="0.68" stop-color="#272727"/><stop offset="0.89" stop-color="#4b4b4b"/><stop offset="1" stop-color="#595959"/></linearGradient><filter id="luminosity-noclip-2" x="546.56" y="-8423.03" width="215.74" height="32766" filterUnits="userSpaceOnUse" color-interpolation-filters="sRGB"><feFlood flood-color="#fff" result="bg"/><feBlend in="SourceGraphic" in2="bg"/></filter><mask id="mask-2" x="546.56" y="-8423.03" width="215.74" height="32766" maskUnits="userSpaceOnUse"><g class="cls-39"/></mask><linearGradient id="_Ì_Ý_èƒOƒ_ƒf_ƒVƒ_ƒ_6" x1="654.43" y1="291.87" x2="654.43" y2="14.17" gradientUnits="userSpaceOnUse"><stop offset="0.5"/><stop offset="0.6" stop-color="#404040"/><stop offset="0.75" stop-color="#919191"/><stop offset="0.87" stop-color="#ccc"/><stop offset="0.95" stop-color="#f1f1f1"/><stop offset="1" stop-color="#fff"/></linearGradient><filter id="luminosity-noclip-3" x="412.02" y="-8423.03" width="252.6" height="32766" filterUnits="userSpaceOnUse" color-interpolation-filters="sRGB"><feFlood flood-color="#fff" result="bg"/><feBlend in="SourceGraphic" in2="bg"/></filter><mask id="mask-3" x="412.02" y="-8423.03" width="252.6" height="32766" maskUnits="userSpaceOnUse"><g class="cls-38"/></mask><linearGradient id="_Ì_Ý_èƒOƒ_ƒf_ƒVƒ_ƒ_277-2" x1="538.32" y1="297.62" x2="538.32" y2="0.75" xlink:href="#_Ì_Ý_èƒOƒ_ƒf_ƒVƒ_ƒ_277"/><linearGradient id="_Ì_Ý_èƒOƒ_ƒf_ƒVƒ_ƒ_6-2" x1="538.32" y1="291.87" x2="538.32" y2="14.17" xlink:href="#_Ì_Ý_èƒOƒ_ƒf_ƒVƒ_ƒ_6"/><linearGradient id="_Ì_Ý_èƒOƒ_ƒf_ƒVƒ_ƒ_6-3" x1="711.37" y1="291.87" x2="711.37" y2="14.17" xlink:href="#_Ì_Ý_èƒOƒ_ƒf_ƒVƒ_ƒ_6"/><filter id="luminosity-noclip-6" x="0" y="-8423.03" width="39.82" height="32766" filterUnits="userSpaceOnUse" color-interpolation-filters="sRGB"><feFlood flood-color="#fff" result="bg"/><feBlend in="SourceGraphic" in2="bg"/></filter><mask id="mask-6" x="0" y="-8423.03" width="39.82" height="32766" maskUnits="userSpaceOnUse"><g class="cls-37"/></mask><linearGradient id="_Ì_Ý_èƒOƒ_ƒf_ƒVƒ_ƒ_277-3" x1="19.91" y1="294.95" x2="19.91" y2="11.44" xlink:href="#_Ì_Ý_èƒOƒ_ƒf_ƒVƒ_ƒ_277"/><linearGradient id="_Ì_Ý_èƒOƒ_ƒf_ƒVƒ_ƒ_6-4" x1="19.91" y1="291.87" x2="19.91" y2="14.17" xlink:href="#_Ì_Ý_èƒOƒ_ƒf_ƒVƒ_ƒ_6"/><linearGradient id="_Ì_Ý_èƒOƒ_ƒf_ƒVƒ_ƒ_277-4" x1="654.43" y1="297.62" x2="654.43" y2="0.75" xlink:href="#_Ì_Ý_èƒOƒ_ƒf_ƒVƒ_ƒ_277"/><linearGradient id="V_KƒOƒ_ƒf_ƒVƒ_ƒ_ƒXƒEƒHƒbƒ_10" x1="420.94" y1="240.01" x2="420.94" y2="461.89" gradientUnits="userSpaceOnUse"><stop offset="0.01" stop-color="#00b2ec"/><stop offset="0.18" stop-color="#3fc2f0"/><stop offset="0.35" stop-color="#7ad0f4"/><stop offset="0.48" stop-color="#9edaf6"/><stop offset="0.55" stop-color="#acddf7"/><stop offset="0.68" stop-color="#ceebfa"/><stop offset="0.8" stop-color="#e9f6fd"/><stop offset="0.91" stop-color="#f9fdfe"/><stop offset="1" stop-color="#fff"/></linearGradient><linearGradient id="V_KƒOƒ_ƒf_ƒVƒ_ƒ_ƒXƒEƒHƒbƒ_9" x1="420.51" y1="203.65" x2="420.51" y2="-12.64" gradientTransform="matrix(-1, 0, 0, 1, 841.45, 0)" gradientUnits="userSpaceOnUse"><stop offset="0" stop-color="#c0e4f1"/><stop offset="0.44" stop-color="#65c8ee"/><stop offset="0.82" stop-color="#1cb3eb"/><stop offset="1" stop-color="#00aaea"/></linearGradient><linearGradient id="V_KƒOƒ_ƒf_ƒVƒ_ƒ_ƒXƒEƒHƒbƒ_7" x1="93.2" y1="233.07" x2="93.2" y2="119.14" gradientUnits="userSpaceOnUse"><stop offset="0" stop-color="#bae2f8"/><stop offset="0.22" stop-color="#cdeafa"/><stop offset="0.71" stop-color="#f1f9fe"/><stop offset="0.97" stop-color="#fff"/></linearGradient><linearGradient id="V_KƒOƒ_ƒf_ƒVƒ_ƒ_ƒXƒEƒHƒbƒ_7-2" x1="461.11" y1="237.19" x2="461.11" y2="152.37" xlink:href="#V_KƒOƒ_ƒf_ƒVƒ_ƒ_ƒXƒEƒHƒbƒ_7"/><linearGradient id="V_KƒOƒ_ƒf_ƒVƒ_ƒ_ƒXƒEƒHƒbƒ_7-3" x1="742.33" y1="233.06" x2="742.33" y2="119.14" xlink:href="#V_KƒOƒ_ƒf_ƒVƒ_ƒ_ƒXƒEƒHƒbƒ_7"/><linearGradient id="V_KƒOƒ_ƒf_ƒVƒ_ƒ_ƒXƒEƒHƒbƒ_8" x1="634.13" y1="234.08" x2="634.13" y2="80.12" gradientUnits="userSpaceOnUse"><stop offset="0" stop-color="#def1fb"/><stop offset="0.49" stop-color="#f1f9fd"/><stop offset="0.97" stop-color="#fff"/></linearGradient><linearGradient id="V_KƒOƒ_ƒf_ƒVƒ_ƒ_ƒXƒEƒHƒbƒ_8-2" x1="265.73" y1="234.08" x2="265.73" y2="79.41" xlink:href="#V_KƒOƒ_ƒf_ƒVƒ_ƒ_ƒXƒEƒHƒbƒ_8"/><filter id="luminosity-noclip-9" x="580.84" y="0" width="261.05" height="297.27" filterUnits="userSpaceOnUse" color-interpolation-filters="sRGB"><feFlood flood-color="#fff" result="bg"/><feBlend in="SourceGraphic" in2="bg"/></filter><mask id="mask-9" x="580.84" y="0" width="261.05" height="297.27" maskUnits="userSpaceOnUse"><g class="cls-1"><polygon class="cls-2" points="688.86 297.27 841.89 66.65 841.89 0 778.11 0 580.84 297.27 688.86 297.27"/></g></mask><linearGradient id="_Ì_Ý_èƒOƒ_ƒf_ƒVƒ_ƒ_5" x1="711.37" y1="291.87" x2="711.37" y2="14.17" gradientUnits="userSpaceOnUse"><stop offset="0.5" stop-color="#fff"/><stop offset="1" stop-color="#fff"/></linearGradient><filter id="luminosity-noclip-11" x="0" y="0" width="39.82" height="60" filterUnits="userSpaceOnUse" color-interpolation-filters="sRGB"><feFlood flood-color="#fff" result="bg"/><feBlend in="SourceGraphic" in2="bg"/></filter><mask id="mask-11" x="0" y="0" width="39.82" height="60" maskUnits="userSpaceOnUse"><g class="cls-11"><polygon class="cls-12" points="39.82 0 0 0 0 60 39.82 0"/></g></mask><linearGradient id="_Ì_Ý_èƒOƒ_ƒf_ƒVƒ_ƒ_5-2" x1="19.91" y1="291.87" x2="19.91" y2="14.17" xlink:href="#_Ì_Ý_èƒOƒ_ƒf_ƒVƒ_ƒ_5"/><filter id="luminosity-noclip-13" x="546.56" y="0" width="215.74" height="297.27" filterUnits="userSpaceOnUse" color-interpolation-filters="sRGB"><feFlood flood-color="#fff" result="bg"/><feBlend in="SourceGraphic" in2="bg"/></filter><mask id="mask-13" x="546.56" y="0" width="215.74" height="297.27" maskUnits="userSpaceOnUse"><g class="cls-15"><polygon class="cls-16" points="546.56 297.27 565.02 297.27 762.3 0 743.83 0 546.56 297.27"/></g></mask><linearGradient id="_Ì_Ý_èƒOƒ_ƒf_ƒVƒ_ƒ_5-3" x1="654.43" y1="291.87" x2="654.43" y2="14.17" xlink:href="#_Ì_Ý_èƒOƒ_ƒf_ƒVƒ_ƒ_5"/><filter id="luminosity-noclip-15" x="412.02" y="0" width="252.6" height="297.27" filterUnits="userSpaceOnUse" color-interpolation-filters="sRGB"><feFlood flood-color="#fff" result="bg"/><feBlend in="SourceGraphic" in2="bg"/></filter><mask id="mask-15" x="412.02" y="0" width="252.6" height="297.27" maskUnits="userSpaceOnUse"><g class="cls-5"><polygon class="cls-6" points="412.02 297.27 467.35 297.27 664.62 0 609.29 0 412.02 297.27"/></g></mask><linearGradient id="_Ì_Ý_èƒOƒ_ƒf_ƒVƒ_ƒ_5-4" x1="538.32" y1="291.87" x2="538.32" y2="14.17" xlink:href="#_Ì_Ý_èƒOƒ_ƒf_ƒVƒ_ƒ_5"/></defs><g class="cls-17"><g id="Layer_2" data-name="Layer 2"><g id="Sunbeams"><rect class="cls-18" y="234.22" width="841.89" height="253.4"/><rect class="cls-19" width="841.89" height="234.22"/><path class="cls-20" d="M0,117.12c14.19,0,32.85,6.84,37.08,31.14,18.13-8.1,49.86,7.51,54.73,33.62,29.2-8.41,51.76-.89,67.69,12.38,13,10.84,19.9,21.68,26.9,40H0Z"/><path class="cls-21" d="M364.74,234.24c10.76-16,32.6-17.71,43.4-12.93,8.93-12.76,27.71-22.16,43.21-16.52C465,185.54,504.41,186,511.92,205c22.54-4.47,44.36,18.22,45.55,29.19Z"/><path class="cls-22" d="M841.89,234.22V117.12c-26.1,0-47.27,21.46-47.38,44.35-21.37-6.34-53.07,15.5-50.6,32.4-16.2-4.93-37.33,6.34-38,17.26-20.61-2.57-53.53,10.18-63.1,23.09Z"/><path class="cls-23" d="M516.05,234.22C515.79,216.89,533.5,203,550.78,204c-2-15.16,11.94-28.92,27.31-26.1-2.05-15.33,10.18-28.26,29.29-31.1,21.89-3.25,45.49,10.31,54.64,34.33,15.45-3.14,34.58,13,39.75,23.68,8.41-3.24,22,2.13,26.69,14.18,12.19,1.69,19.92,7.3,23.75,15.2Z"/><path class="cls-24" d="M98.07,234.24c-3.7-24.05,15-45.65,37.62-47.29-5.17-22.54,17.84-57.29,52.59-53.07-5.87-27.47,11.33-46.16,35-52.95,25.16-7.22,52.59,9.15,52.83,30.88,17.61-7.74,42.5,9.86,39.85,28.75,26.13-1.28,56.42,30.77,51.25,57.66,19.72-5.17,50.25,7,66.68,36Z"/><path class="cls-25" d="M697.77,256.2A3.17,3.17,0,1,1,694.6,253,3.17,3.17,0,0,1,697.77,256.2Z"/><path class="cls-25" d="M665.72,256.2a3.17,3.17,0,1,1-3.17-3.17A3.17,3.17,0,0,1,665.72,256.2Z"/><path class="cls-25" d="M610.78,316.77a3.17,3.17,0,1,1-3.17-3.17A3.17,3.17,0,0,1,610.78,316.77Z"/><path class="cls-25" d="M750.25,316.77a3.17,3.17,0,1,1-3.17-3.17A3.17,3.17,0,0,1,750.25,316.77Z"/><path class="cls-25" d="M653,256.2a2.11,2.11,0,1,1-2.11-2.11A2.12,2.12,0,0,1,653,256.2Z"/><circle class="cls-25" cx="781.83" cy="256.2" r="2.11" transform="translate(453.92 1010.77) rotate(-84.66)"/><path class="cls-25" d="M448.42,277.33a2.11,2.11,0,1,1-2.11-2.11A2.11,2.11,0,0,1,448.42,277.33Z"/><circle class="cls-25" cx="468.15" cy="277.33" r="2.11"/><circle class="cls-25" cx="589.3" cy="277.33" r="2.11"/><circle class="cls-25" cx="629.44" cy="277.33" r="2.11" transform="translate(288.41 874.66) rotate(-84.05)"/><path class="cls-25" d="M745,277.33a2.11,2.11,0,1,1-2.11-2.11A2.11,2.11,0,0,1,745,277.33Z"/><circle class="cls-25" cx="188.52" cy="277.33" r="2.11"/><circle class="cls-25" cx="577.67" cy="244.22" r="2.11"/><circle class="cls-25" cx="730.88" cy="244.22" r="2.11"/><circle class="cls-25" cx="752.01" cy="244.22" r="2.11"/><circle class="cls-25" cx="472.38" cy="244.22" r="2.11"/><path class="cls-25" d="M562.17,244.22a2.11,2.11,0,1,1-2.11-2.1A2.1,2.1,0,0,1,562.17,244.22Z"/><circle class="cls-25" cx="109.63" cy="244.22" r="2.11"/><circle class="cls-25" cx="118.08" cy="244.22" r="2.11"/><circle class="cls-25" cx="68.07" cy="244.22" r="2.11"/><circle class="cls-25" cx="332.91" cy="244.22" r="2.11"/><circle class="cls-25" cx="184.29" cy="244.22" r="2.11"/><circle class="cls-25" cx="157.94" cy="244.22" r="2.11"/><ellipse class="cls-25" cx="151.54" cy="256.2" rx="2.07" ry="2.11"/><ellipse class="cls-25" cx="437.11" cy="256.2" rx="2.07" ry="2.11"/><ellipse class="cls-25" cx="162.15" cy="256.2" rx="2.07" ry="2.11"/><ellipse class="cls-25" cx="289.98" cy="256.2" rx="2.07" ry="2.11"/><path class="cls-25" d="M417.35,256.2a2.07,2.07,0,1,1-2.07-2.11A2.1,2.1,0,0,1,417.35,256.2Z"/><circle class="cls-25" cx="250.5" cy="244.22" r="2.11"/><circle class="cls-25" cx="810.47" cy="244.22" r="2.11"/><path class="cls-25" d="M134.86,256.2a3.11,3.11,0,1,1-3.11-3.17A3.14,3.14,0,0,1,134.86,256.2Z"/><path class="cls-25" d="M507.18,256.2a3.11,3.11,0,1,1-3.11-3.17A3.14,3.14,0,0,1,507.18,256.2Z"/><path class="cls-25" d="M113.5,277.33a3.17,3.17,0,1,1-3.17-3.17A3.17,3.17,0,0,1,113.5,277.33Z"/><path class="cls-25" d="M94.48,277.33a3.17,3.17,0,1,1-3.17-3.17A3.17,3.17,0,0,1,94.48,277.33Z"/><path class="cls-25" d="M681.22,294.23a3.17,3.17,0,1,1-3.17-3.17A3.17,3.17,0,0,1,681.22,294.23Z"/><path class="cls-25" d="M803.31,293.76a3.17,3.17,0,1,1-3.17-3.16A3.16,3.16,0,0,1,803.31,293.76Z"/><path class="cls-25" d="M729.53,391.05a3.94,3.94,0,1,1-3.93-3.94A3.94,3.94,0,0,1,729.53,391.05Z"/><path class="cls-25" d="M366.08,390.82a3.94,3.94,0,1,1-3.94-3.94A3.93,3.93,0,0,1,366.08,390.82Z"/><path class="cls-25" d="M157.94,390.82a3.94,3.94,0,1,1-3.94-3.94A3.93,3.93,0,0,1,157.94,390.82Z"/><path class="cls-25" d="M178.3,390.82a3.94,3.94,0,1,1-3.93-3.94A3.93,3.93,0,0,1,178.3,390.82Z"/><path class="cls-25" d="M662.26,391.05a3.94,3.94,0,1,1-3.93-3.94A3.94,3.94,0,0,1,662.26,391.05Z"/><path class="cls-25" d="M408.69,390.82a3.94,3.94,0,1,1-3.93-3.94A3.93,3.93,0,0,1,408.69,390.82Z"/><path class="cls-25" d="M87.15,391.05a3.94,3.94,0,1,1-3.94-3.94A3.94,3.94,0,0,1,87.15,391.05Z"/><path class="cls-25" d="M778.13,391.05a3.94,3.94,0,1,1-3.93-3.94A3.94,3.94,0,0,1,778.13,391.05Z"/><path class="cls-25" d="M492.1,294.23a3.17,3.17,0,1,1-3.17-3.17A3.17,3.17,0,0,1,492.1,294.23Z"/><path class="cls-25" d="M335.73,316.77a3.17,3.17,0,1,1-3.17-3.17A3.17,3.17,0,0,1,335.73,316.77Z"/><path class="cls-25" d="M94.84,316.77a3.17,3.17,0,1,1-3.17-3.17A3.17,3.17,0,0,1,94.84,316.77Z"/><path class="cls-25" d="M270.22,344.23a3.17,3.17,0,1,1-3.17-3.17A3.16,3.16,0,0,1,270.22,344.23Z"/><path class="cls-25" d="M516.4,344.23a3.17,3.17,0,1,1-3.17-3.17A3.16,3.16,0,0,1,516.4,344.23Z"/><path class="cls-25" d="M642.13,344.23a3.17,3.17,0,1,1-3.17-3.17A3.16,3.16,0,0,1,642.13,344.23Z"/><path class="cls-25" d="M796.44,344.23a3.17,3.17,0,1,1-3.17-3.17A3.16,3.16,0,0,1,796.44,344.23Z"/><path class="cls-25" d="M626.28,344.23a3.17,3.17,0,1,1-3.17-3.17A3.16,3.16,0,0,1,626.28,344.23Z"/><path class="cls-25" d="M236.41,344.23a3.17,3.17,0,1,1-3.17-3.17A3.16,3.16,0,0,1,236.41,344.23Z"/><path class="cls-25" d="M221.62,344.23a3.17,3.17,0,1,1-3.17-3.17A3.16,3.16,0,0,1,221.62,344.23Z"/><path class="cls-25" d="M203.66,294.23a3.17,3.17,0,1,1-3.17-3.17A3.17,3.17,0,0,1,203.66,294.23Z"/><path class="cls-25" d="M28.27,294.23a3.17,3.17,0,1,1-3.17-3.17A3.17,3.17,0,0,1,28.27,294.23Z"/><path class="cls-25" d="M14.19,344.23A3.17,3.17,0,1,1,11,341.06,3.16,3.16,0,0,1,14.19,344.23Z"/><path class="cls-25" d="M324.11,294.23a3.17,3.17,0,1,1-3.17-3.17A3.17,3.17,0,0,1,324.11,294.23Z"/><path class="cls-25" d="M351.58,294.23a3.17,3.17,0,1,1-3.17-3.17A3.17,3.17,0,0,1,351.58,294.23Z"/><path class="cls-25" d="M36.37,256.2A3.17,3.17,0,1,1,33.2,253,3.17,3.17,0,0,1,36.37,256.2Z"/><path class="cls-25" d="M615,244.22a3.17,3.17,0,1,1-3.17-3.17A3.17,3.17,0,0,1,615,244.22Z"/><path class="cls-25" d="M267.76,244.22a3.17,3.17,0,1,1-3.17-3.17A3.17,3.17,0,0,1,267.76,244.22Z"/><path class="cls-26" d="M841.89,255.24H614.66a1,1,0,1,0,0,1.91H841.89Z"/><path class="cls-26" d="M532.25,257.15H386.44a1,1,0,0,1,0-1.91H532.25a1,1,0,0,1,0,1.91Z"/><path class="cls-26" d="M530.13,295.3H296.28a1.07,1.07,0,0,1,0-2.13H530.13a1.07,1.07,0,0,1,0,2.13Z"/><path class="cls-26" d="M275.15,345.3H161.05a1.07,1.07,0,1,1,0-2.13h114.1a1.07,1.07,0,0,1,0,2.13Z"/><path class="cls-26" d="M695,345.3H461.11a1.07,1.07,0,1,1,0-2.13H695a1.07,1.07,0,0,1,0,2.13Z"/><path class="cls-27" d="M508,392.64h-169a1.59,1.59,0,0,1,0-3.18H508a1.59,1.59,0,0,1,0,3.18Z"/><path class="cls-27" d="M114.91,392.64H29.33a1.59,1.59,0,1,1,0-3.18h85.58a1.59,1.59,0,0,1,0,3.18Z"/><path class="cls-27" d="M802,392.64H568.17a1.59,1.59,0,1,1,0-3.18H802a1.59,1.59,0,0,1,0,3.18Z"/><path class="cls-26" d="M841.89,343.17H769.62a1.07,1.07,0,0,0,0,2.13h72.27Z"/><path class="cls-26" d="M49.76,343.17H0v2.13H49.76a1.07,1.07,0,0,0,0-2.13Z"/><path class="cls-26" d="M147.66,293.17H0v2.13H147.66a1.07,1.07,0,0,0,0-2.13Z"/><path class="cls-26" d="M841.89,293.17H820.33a1.07,1.07,0,0,0,0,2.13h21.56Z"/><path class="cls-26" d="M250.5,295.3H179.36a1.07,1.07,0,0,1,0-2.13H250.5a1.07,1.07,0,0,1,0,2.13Z"/><path class="cls-26" d="M716.09,295.3H638.61a1.07,1.07,0,1,1,0-2.13h77.48a1.07,1.07,0,0,1,0,2.13Z"/><path class="cls-26" d="M110.33,278.39H77.93a1.06,1.06,0,0,1,0-2.12h32.4a1.06,1.06,0,0,1,0,2.12Z"/><path class="cls-26" d="M216,278.39H132.87a1.06,1.06,0,0,1,0-2.12H216a1.06,1.06,0,0,1,0,2.12Z"/><path class="cls-26" d="M393,278.39h-32.4a1.06,1.06,0,1,1,0-2.12H393a1.06,1.06,0,0,1,0,2.12Z"/><path class="cls-26" d="M566.76,278.39H439.51a1.06,1.06,0,1,1,0-2.12H566.76a1.06,1.06,0,1,1,0,2.12Z"/><path class="cls-26" d="M620.29,317.84h-32.4a1.07,1.07,0,0,1,0-2.13h32.4a1.07,1.07,0,0,1,0,2.13Z"/><path class="cls-26" d="M572.75,317.84h-32.4a1.07,1.07,0,0,1,0-2.13h32.4a1.07,1.07,0,0,1,0,2.13Z"/><path class="cls-26" d="M457.58,317.84h-32.4a1.07,1.07,0,0,1,0-2.13h32.4a1.07,1.07,0,1,1,0,2.13Z"/><path class="cls-26" d="M104.7,317.84H72.3a1.07,1.07,0,1,1,0-2.13h32.4a1.07,1.07,0,0,1,0,2.13Z"/><path class="cls-26" d="M188.87,317.84H131.81a1.07,1.07,0,0,1,0-2.13h57.06a1.07,1.07,0,0,1,0,2.13Z"/><path class="cls-26" d="M794,317.84H666.78a1.07,1.07,0,0,1,0-2.13H794a1.07,1.07,0,0,1,0,2.13Z"/><path class="cls-26" d="M360.15,317.84H232.89a1.07,1.07,0,0,1,0-2.13H360.15a1.07,1.07,0,0,1,0,2.13Z"/><path class="cls-26" d="M44.12,255.24H0v1.91H44.12a1,1,0,1,0,0-1.91Z"/><path class="cls-28" d="M368.13,245H134.28a.8.8,0,1,1,0-1.59H368.13a.8.8,0,1,1,0,1.59Z"/><path class="cls-28" d="M632.27,245H483.65a.8.8,0,1,1,0-1.59H632.27a.8.8,0,0,1,0,1.59Z"/><path class="cls-28" d="M821,245H765.39a.8.8,0,0,1,0-1.59H821a.8.8,0,0,1,0,1.59Z"/><path class="cls-26" d="M350.52,257.15H204.72a1,1,0,1,1,0-1.91h145.8a1,1,0,1,1,0,1.91Z"/><g class="cls-29"><g class="cls-29"><polygon class="cls-30" points="688.86 297.27 841.89 66.65 841.89 0 778.11 0 580.84 297.27 688.86 297.27"/></g></g><g class="cls-31"><g class="cls-31"><polygon class="cls-32" points="39.82 0 0 0 0 60 39.82 0"/></g></g><g class="cls-33"><g class="cls-33"><polygon class="cls-34" points="546.56 297.27 565.02 297.27 762.3 0 743.83 0 546.56 297.27"/></g></g><g class="cls-35"><g class="cls-35"><polygon class="cls-36" points="412.02 297.27 467.35 297.27 664.62 0 609.29 0 412.02 297.27"/></g></g></g></g></g></svg>